<svg width="13" height="20" viewBox="0 0 13 20" xmlns="http://www.w3.org/2000/svg"><title>account</title><path d="M11.283 10.475a.682.682 0 0 0-.994-.045.763.763 0 0 0-.043 1.041 5.475 5.475 0 0 1 1.342 3.611v3.168c0 .148-.118.27-.258.27H1.663a.267.267 0 0 1-.259-.27v-3.168c0-2.943 2.285-5.332 5.09-5.332 2.566 0 4.656-2.189 4.656-4.877C11.15 2.184 9.064 0 6.498 0 3.932 0 1.843 2.189 1.843 4.877a5.1 5.1 0 0 0 .551 2.307c.184.361.61.492.955.3a.755.755 0 0 0 .285-1 3.55 3.55 0 0 1-.383-1.607c0-1.877 1.455-3.402 3.247-3.402C8.29 1.475 9.745 3 9.745 4.877c0 1.877-1.455 3.402-3.247 3.402C2.915 8.279 0 11.332 0 15.086v3.168C0 19.217.747 20 1.667 20h9.666c.92 0 1.667-.783 1.667-1.746v-3.168c0-1.713-.61-3.348-1.717-4.61z" fill="#f0f0f0" class="fill"></path></svg>