<svg width="22" height="21" viewBox="0 0 22 21" fill="none" xmlns="http://www.w3.org/2000/svg">
<path d="M11 2.33334C8.70142 2.33334 6.49702 3.24643 4.8717 4.87175C3.24639 6.49706 2.33329 8.70146 2.33329 11H5.58329C6.15793 11 6.70903 11.2283 7.11536 11.6346C7.52169 12.0409 7.74996 12.592 7.74996 13.1667V18.5833C7.74996 19.158 7.52169 19.7091 7.11536 20.1154C6.70903 20.5217 6.15793 20.75 5.58329 20.75H2.33329C1.75866 20.75 1.20756 20.5217 0.801228 20.1154C0.394899 19.7091 0.166626 19.158 0.166626 18.5833V11C0.166626 5.01676 5.01671 0.166672 11 0.166672C16.9832 0.166672 21.8333 5.01676 21.8333 11V18.5833C21.8333 19.158 21.605 19.7091 21.1987 20.1154C20.7924 20.5217 20.2413 20.75 19.6666 20.75H16.4166C15.842 20.75 15.2909 20.5217 14.8846 20.1154C14.4782 19.7091 14.25 19.158 14.25 18.5833V13.1667C14.25 12.592 14.4782 12.0409 14.8846 11.6346C15.2909 11.2283 15.842 11 16.4166 11H19.6666C19.6666 8.70146 18.7535 6.49706 17.1282 4.87175C15.5029 3.24643 13.2985 2.33334 11 2.33334ZM2.33329 13.1667V18.5833H5.58329V13.1667H2.33329ZM16.4166 13.1667V18.5833H19.6666V13.1667H16.4166Z" fill="#f0f0f0"></path>
</svg>