<svg xmlns="http://www.w3.org/2000/svg" version="1.1" xmlns:xlink="http://www.w3.org/1999/xlink" width="512" height="512" x="0" y="0" viewBox="0 0 512.002 512.003" style="enable-background:new 0 0 512 512" xml:space="preserve" class=""><g><path d="M501.581 210.893a15.002 15.002 0 0 0-12.959-11.833l-91.383-10.577 61.734-104.696a15 15 0 0 0-20.539-20.54l-103.553 61.06-7.137-110.272A15 15 0 0 0 315.89.331a14.998 14.998 0 0 0-16.399 7.703L241.76 118.062l-64.58-60.973a15.001 15.001 0 0 0-25.263 11.915l6.476 96.138-114.929-14.068a15 15 0 0 0-12.09 25.824l78.482 73.682-92.216 52.899a15 15 0 0 0 5.848 27.924l93.739 10.155L55.59 446.094a15 15 0 0 0 20.541 20.539l104.536-61.643 10.177 93.632a15.002 15.002 0 0 0 14.915 13.38 15.004 15.004 0 0 0 13.005-7.533l52.868-92.11 73.69 78.489a15.05 15.05 0 0 0 11.375 4.728c8.092-.223 14.58-6.851 14.58-14.994 0-.897-.078-1.778-.23-2.633l-13.842-113.084L471.1 378.807a14.986 14.986 0 0 0 15.406-8.529 15 15 0 0 0-3.318-17.296l-78.584-73.771 89.838-52.284a15.006 15.006 0 0 0 7.139-16.034z" fill="#f0f0f0" opacity="1" data-original="#f0f0f0" class=""></path></g></svg>